<svg id="Layer_5" enable-background="new 0 0 64 64" height="512" viewBox="0 0 64 64" width="512" xmlns="http://www.w3.org/2000/svg"><path d="m30.2 34.34-8.2-2.34c0 .83-.34 1.58-.88 2.12s-1.29.88-2.12.88c-1.66 0-3-1.34-3-3l-8.2 2.34c-3.43.98-5.8 4.12-5.8 7.69v3.97h34v-3.97c0-3.57-2.37-6.71-5.8-7.69z" fill="#ff826e"/><path d="m12 52c5.52 0 10 4.48 10 10h-20c0-2.76 1.12-5.26 2.93-7.07s4.31-2.93 7.07-2.93z" fill="#ffeaa7"/><path d="m62 62h-20c0-2.76 1.12-5.26 2.93-7.07s4.31-2.93 7.07-2.93c5.52 0 10 4.48 10 10z" fill="#ffeaa7"/><path d="m32 52c5.52 0 10 4.48 10 10h-20c0-2.76 1.12-5.26 2.93-7.07s4.31-2.93 7.07-2.93z" fill="#ffeaa7"/><path d="m27.99 11.14c1.73.44 3.01 1.99 3.01 3.86 0 .95-.35 1.81-.9 2.5l-1.19 1.19c-.52-.43-1.18-.69-1.91-.69h-1-1.77c-2.74 0-5.42-.89-7.62-2.54-.39-.3-.88-.46-1.38-.46-.77 0-1.49.38-1.91 1.03l-1.32 1.97h-1c-.73 0-1.39.26-1.91.69l-1.19-1.19c-.55-.69-.9-1.55-.9-2.5 0-1.87 1.28-3.42 3.01-3.86 0-.05-.01-.09-.01-.14 0-2.21 1.79-4 4-4 .5 0 .97.1 1.41.27.65-1.34 2-2.27 3.59-2.27s2.94.93 3.59 2.27c.44-.17.91-.27 1.41-.27 2.21 0 4 1.79 4 4 0 .05-.01.09-.01.14z" fill="#b27946"/><g fill="#f0d0b4"><path d="m28.91 18.69c.07.06.14.12.21.19.54.54.88 1.29.88 2.12 0 1.66-1.34 3-3 3h-1.59c.39-1.15.59-2.37.59-3.62v-2.38h1c.73 0 1.39.26 1.91.69z"/><path d="m12 18v2.38c0 1.25.2 2.47.59 3.62h-1.59c-.83 0-1.58-.34-2.12-.88s-.88-1.29-.88-2.12c0-.93.42-1.77 1.09-2.31.52-.43 1.18-.69 1.91-.69z"/><path d="m26 18v2.38c0 1.25-.2 2.47-.59 3.62-.31.97-.76 1.89-1.32 2.74-.58.88-1.28 1.69-2.09 2.38l-3 1.88c-1.11-.48-2.12-1.11-3-1.88-1.58-1.36-2.76-3.14-3.41-5.12-.39-1.15-.59-2.37-.59-3.62v-2.38l1.32-1.97c.42-.65 1.14-1.03 1.91-1.03.5 0 .99.16 1.38.46 2.2 1.65 4.88 2.54 7.62 2.54z"/><path d="m19 31 3-1.88v2.88c0 .83-.34 1.58-.88 2.12s-1.29.88-2.12.88c-1.66 0-3-1.34-3-3v-2.88c.88.77 1.89 1.4 3 1.88z"/></g><path d="m17 47c0 2.76-2.24 5-5 5s-5-2.24-5-5c0-.34.03-.68.1-1 .15-.74.46-1.42.9-2 .91-1.21 2.37-2 4-2 2.42 0 4.44 1.72 4.9 4 .07.32.1.66.1 1z" fill="#ffeaa7"/><path d="m36 44c.63.83 1 1.87 1 3 0 2.76-2.24 5-5 5s-5-2.24-5-5c0-.34.03-.68.1-1 .33-1.61 1.43-2.94 2.9-3.58v-.01c.61-.26 1.29-.41 2-.41 1.63 0 3.09.79 4 2z" fill="#ffeaa7"/><circle cx="52" cy="47" fill="#ffeaa7" r="5"/><path d="m58 12h-20c-2.21 0-4 1.79-4 4v12c0 2.21 1.79 4 4 4h5v4.54c0 .81.65 1.46 1.46 1.46.35 0 .69-.12.95-.35l6.59-5.65h6c2.21 0 4-1.79 4-4v-12c0-2.21-1.79-4-4-4z" fill="#e6e9ed"/><path d="m48 6v2h-4-4v-2c0-1.1.45-2.1 1.17-2.83.73-.72 1.73-1.17 2.83-1.17 2.21 0 4 1.79 4 4z" fill="#aab2bd"/><path d="m48 20-2.55 5.11c-.28.54-.84.89-1.45.89s-1.17-.35-1.45-.89l-2.55-5.11h4z" fill="#aab2bd"/><path d="m48 12v8h-4v-12h4z" fill="#b4dd7f"/><path d="m44 8v12h-4v-8-4z" fill="#ff826e"/><path d="m55.754 51.674c1.367-1.101 2.246-2.786 2.246-4.674 0-3.309-2.691-6-6-6s-6 2.691-6 6c0 1.888.879 3.573 2.246 4.674-2.774 1.012-5.026 3.103-6.246 5.771-1.22-2.667-3.472-4.759-6.246-5.771 1.367-1.101 2.246-2.786 2.246-4.674 0-1.223-.369-2.36-1-3.31v-1.656c0-3.997-2.684-7.556-6.527-8.653l-7.473-2.135v-1.681c1.367-1.272 2.434-2.831 3.119-4.565h.881c2.206 0 4-1.794 4-4 0-.844-.266-1.626-.714-2.272l.521-.521.071-.079c.734-.908 1.122-1.99 1.122-3.128 0-2.019-1.215-3.809-3.034-4.584-.29-2.483-2.406-4.416-4.966-4.416-.313 0-.629.032-.943.096-.929-1.31-2.419-2.096-4.057-2.096s-3.128.786-4.057 2.096c-.314-.064-.63-.096-.943-.096-2.56 0-4.676 1.933-4.966 4.416-1.819.775-3.034 2.565-3.034 4.584 0 1.138.388 2.22 1.122 3.128l.594.598c-.449.647-.716 1.429-.716 2.274 0 2.206 1.794 4 4 4h.881c.685 1.734 1.752 3.293 3.119 4.565v1.681l-7.473 2.135c-3.843 1.098-6.527 4.656-6.527 8.653v4.966h5c0 1.888.879 3.573 2.246 4.674-4.219 1.539-7.246 5.58-7.246 10.326v1h20 2 18 2 20v-1c0-4.746-3.027-8.787-7.246-10.326zm-23.754-.674c-2.206 0-4-1.794-4-4s1.794-4 4-4 4 1.794 4 4-1.794 4-4 4zm-5-28h-.279c.181-.849.279-1.724.279-2.616v-1.384c1.103 0 2 .897 2 2s-.897 2-2 2zm-16.739-10.894.786-.201-.034-.811c-.002-.049-.007-.097-.012-.097 0 0-.001.001-.001.002 0-1.998 1.977-3.586 4.055-2.796l.856.325.398-.825c.508-1.05 1.539-1.703 2.691-1.703s2.183.653 2.69 1.704l.398.825.856-.325c2.077-.789 4.054.813 4.058 2.731l-.05.971.786.201c1.332.338 2.262 1.529 2.262 2.893 0 .659-.224 1.292-.647 1.833l-.593.593c-.534-.264-1.126-.426-1.76-.426h-2.768c-2.515 0-5.007-.831-7.019-2.339-.567-.427-1.271-.661-1.981-.661-1.107 0-2.135.55-2.748 1.471l-1.019 1.529h-.465c-.634 0-1.226.162-1.76.426l-.593-.593c-.423-.541-.647-1.173-.647-1.833 0-1.364.93-2.555 2.261-2.894zm.739 10.894c-1.103 0-2-.897-2-2s.897-2 2-2v1.384c0 .892.098 1.767.279 2.616zm2-2.616v-2.082l1.148-1.723c.397-.595 1.294-.748 1.865-.319 2.355 1.767 5.274 2.74 8.219 2.74h.768v1.384c0 4.082-2.341 7.771-6 9.518-3.659-1.747-6-5.436-6-9.518zm5.606 11.535.394.169.394-.169c.561-.24 1.096-.519 1.606-.831v.912c0 1.103-.897 2-2 2s-2-.897-2-2v-.912c.51.311 1.046.591 1.606.831zm-15.606 13.081v-2.966c0-3.109 2.088-5.876 5.076-6.73l7.147-2.042c.532 1.585 2.015 2.738 3.777 2.738s3.245-1.153 3.777-2.738l7.147 2.042c2.912.832 4.953 3.485 5.057 6.496-.88-.506-1.896-.8-2.981-.8-.341 0-.674.035-1 .09v-2.09h-2v2.812c-1.223.71-2.17 1.838-2.65 3.188h-8.7c-.826-2.327-3.043-4-5.65-4-1.093 0-2.116.299-3 .812v-2.812h-2v4.69c-.269.405-.485.845-.65 1.31zm5 2c0-2.206 1.794-4 4-4s4 1.794 4 4-1.794 4-4 4-4-1.794-4-4zm-4.944 14c.499-4.494 4.319-8 8.944-8s8.445 3.506 8.944 8zm12.698-9.326c1.367-1.101 2.246-2.786 2.246-4.674h8c0 1.888.879 3.573 2.246 4.674-2.774 1.012-5.026 3.103-6.246 5.771-1.22-2.668-3.472-4.759-6.246-5.771zm7.302 9.326c.499-4.494 4.319-8 8.944-8s8.445 3.506 8.944 8zm24.944-14c0-2.206 1.794-4 4-4s4 1.794 4 4-1.794 4-4 4-4-1.794-4-4zm-4.944 14c.499-4.494 4.319-8 8.944-8s8.445 3.506 8.944 8z"/><path d="m58 11h-9v-5c0-2.757-2.243-5-5-5s-5 2.243-5 5v5h-1c-2.757 0-5 2.243-5 5v12c0 2.757 2.243 5 5 5h4v3.54c0 1.356 1.104 2.46 2.46 2.46.587 0 1.156-.21 1.601-.592l6.309-5.408h5.63c2.757 0 5-2.243 5-5v-12c0-2.757-2.243-5-5-5zm-17 8v-10h2v10zm5.382 2-1.829 3.658c-.211.423-.895.422-1.105 0l-1.83-3.658zm.618-2h-2v-10h2zm-3-16c1.654 0 3 1.346 3 3v1h-6v-1c0-1.654 1.346-3 3-3zm17 25c0 1.654-1.346 3-3 3h-6.37l-6.871 5.89c-.277.237-.759.013-.759-.35v-5.54h-6c-1.654 0-3-1.346-3-3v-12c0-1.654 1.346-3 3-3h1v7.236l2.658 5.317c.447.892 1.344 1.447 2.342 1.447s1.895-.555 2.342-1.447l2.658-5.317v-7.236h9c1.654 0 3 1.346 3 3z"/><path d="m51 15h8v2h-8z"/><path d="m51 19h8v2h-8z"/><path d="m51 23h8v2h-8z"/><path d="m57 27h2v2h-2z"/><path d="m53 27h2v2h-2z"/></svg>